<svg id="Capa_1" enable-background="new 0 0 512 512" height="512" viewBox="0 0 512 512" width="512" xmlns="http://www.w3.org/2000/svg"><g><path d="m338.2 101.201c-5.026-6.542-10.933-12.321-17.382-17.466l23.176-40.137c4.146-7.178 1.685-16.348-5.493-20.493-7.163-4.146-16.348-1.714-20.493 5.493l-23.35 40.441c-7.526-3.018-15.403-5.092-23.657-6.292v-47.747c0-8.291-6.709-15-15-15s-15 6.709-15 15v47.747c-8.254 1.199-16.132 3.274-23.657 6.292l-23.35-40.441c-4.16-7.207-13.345-9.639-20.493-5.493-7.178 4.146-9.639 13.315-5.493 20.493l23.176 40.137c-6.449 5.145-12.356 10.924-17.382 17.466l82.2 47.399z"/><path d="m256 181c-2.701 0-5.099-.601-7.5-2.1l-89.7-51.9c-3.204 7.538-5.089 15.661-6.323 24h-46.477c-8.291 0-15 6.709-15 15s6.709 15 15 15h45v28.295l-32.402 18.712c-7.178 4.146-9.639 13.315-5.493 20.493 4.156 7.196 13.354 9.617 20.493 5.493l19.116-11.039c8.17 49.817 51.192 89.046 103.286 89.046s95.116-39.229 103.286-89.046l19.116 11.039c7.152 4.133 16.344 1.69 20.493-5.493 4.146-7.178 1.685-16.348-5.493-20.493l-32.402-18.712v-28.295h45c8.291 0 15-6.709 15-15s-6.709-15-15-15h-46.478c-1.234-8.339-3.118-16.461-6.323-24l-89.699 51.9c-2.401 1.499-4.799 2.1-7.5 2.1z"/><path d="m113.2 83.5c-4.2 7.2-1.8 16.199 5.4 20.4l40.2 23.1c3.6-9.3 8.699-18.001 15-25.8l-40.201-23.1c-7.199-4.2-16.199-1.8-20.399 5.4z"/><path d="m393.401 103.9c7.2-4.2 9.6-13.2 5.4-20.4s-13.2-9.6-20.4-5.4l-40.201 23.101c6.301 7.798 11.4 16.5 15 25.8z"/><path d="m181 475.789v-57.616l-25.078 32.538z"/><path d="m331 418.173v57.616l25.078-25.078z"/><path d="m301 392v-33.955c-.833-1.203-1.767-2.252-2.542-3.547-13.428 4.49-27.537 7.502-42.458 7.502-14.744 0-28.682-2.963-41.973-7.35-.917 1.536-2.02 2.805-3.027 4.211v33.139c0 24.814 20.186 45 45 45s45-20.186 45-45z"/><path d="m369.848 394.227c-8.43-2.075-16.696-4.2-24.626-6.736l42.658 55.355c4.6 5.977 4.058 14.429-1.274 19.761l-49.395 49.393h128.088c9.018 0 15.782-7.956 14.951-16.935-7.285-78.705-66.129-89.945-110.402-100.838z"/><path d="m211 512h90v-60.383c-12.574 9.518-28.052 15.383-45 15.383s-32.426-5.865-45-15.383z"/><path d="m46.701 512h128.088l-49.395-49.395c-5.332-5.332-5.874-13.784-1.274-19.761l42.631-55.318c-7.919 2.505-16.177 4.625-24.598 6.7-44.274 10.894-103.118 22.134-110.402 100.839-.832 8.979 5.932 16.935 14.95 16.935z"/></g></svg>